<?xml version="1.0" encoding="UTF-8"?>
<svg width="971px" height="215px" viewBox="0 0 971 215" version="1.1" xmlns="http://www.w3.org/2000/svg" xmlns:xlink="http://www.w3.org/1999/xlink">
    <!-- Generator: Sketch 46.2 (44496) - http://www.bohemiancoding.com/sketch -->
    <title>Group 3 Copy 3</title>
    <desc>Created with Sketch.</desc>
    <defs></defs>
    <g id="Page-1" stroke="none" stroke-width="1" fill="none" fill-rule="evenodd" opacity="0.12182971">
        <g id="Desktop-HD-Copy" transform="translate(-235.000000, -405.000000)" fill="#000000">
            <g id="Group-3-Copy-3" transform="translate(235.000000, 405.000000)">
                <polygon id="Path-Copy" points="0 173 37.3185714 173 37.3185714 60.7971429 85.5114286 133.951429 86.5 133.951429 135.187143 60.0557143 135.187143 173 173 173 173 0 131.974286 0 86.5 73.1542857 41.0257143 0 0 0"></polygon>
                <path d="M266.201521,178 C226.410646,178 197,149.851254 197,108.998208 L197,108.5 C197,70.3870968 223.939163,39 262.494297,39 C306.73384,39 327,73.625448 327,111.489247 C327,114.478495 326.752852,117.96595 326.505703,121.453405 L234.319392,121.453405 C238.026616,138.641577 249.889734,147.609319 266.695817,147.609319 C279.30038,147.609319 288.444867,143.623656 298.825095,133.908602 L320.326996,153.089606 C307.969582,168.53405 290.174905,178 266.201521,178 Z M233.825095,97.7885305 L290.422053,97.7885305 C288.197719,80.8494624 278.311787,69.390681 262.494297,69.390681 C246.923954,69.390681 236.790875,80.6003584 233.825095,97.7885305 Z" id="Combined-Shape-Copy"></path>
                <path d="M347,174 L384.721271,174 L384.721271,100.071429 C384.721271,82.2692308 393.40709,73.1208791 407.552567,73.1208791 C421.698044,73.1208791 429.639364,82.2692308 429.639364,100.071429 L429.639364,174 L467.360636,174 L467.360636,100.071429 C467.360636,82.2692308 476.046455,73.1208791 490.191932,73.1208791 C504.337408,73.1208791 512.278729,82.2692308 512.278729,100.071429 L512.278729,174 L550,174 L550,87.7087912 C550,55.8131868 533.124694,39 505.081907,39 C486.96577,39 473.06846,46.4175824 461.404645,60.0164835 C454.45599,46.6648352 441.303178,39 423.93154,39 C404.822738,39 393.40709,49.1373626 384.721271,60.2637363 L384.721271,41.4725275 L347,41.4725275 L347,174 Z" id="Path-Copy-2"></path>
                <path d="M644.751724,178 C603.537931,178 573,147.360215 573,108.998208 L573,108.5 C573,70.1379928 603.786207,39 645.248276,39 C686.462069,39 717,69.6397849 717,108.001792 L717,108.5 C717,146.862007 686.213793,178 644.751724,178 Z M645.248276,145.367384 C666.848276,145.367384 679.758621,128.677419 679.758621,108.998208 L679.758621,108.5 C679.758621,88.8207885 665.606897,71.6326165 644.751724,71.6326165 C623.151724,71.6326165 610.241379,88.3225806 610.241379,108.001792 L610.241379,108.5 C610.241379,128.179211 624.393103,145.367384 645.248276,145.367384 Z" id="Combined-Shape-Copy-2"></path>
                <path d="M737,174 L775.117647,174 L775.117647,125.064773 C775.117647,93.4298792 790.665635,78.353875 815.993808,78.353875 L818,78.353875 L818,39.057405 C795.430341,38.0688146 782.891641,49.9318999 775.117647,68.220823 L775.117647,41.5288811 L737,41.5288811 L737,174 Z" id="Path-Copy-3"></path>
                <path d="M875.842294,215 C898.510753,215 909.471326,204.852647 919.684588,177.875536 L971,42 L931.641577,42 L902.496416,132.336195 L872.105735,42 L832,42 L884.311828,175.153076 C881.073477,181.835479 877.586022,183.815451 871.109319,183.815451 C866.12724,183.815451 859.899642,181.587983 854.917563,178.618026 L842.213262,205.842632 C851.928315,211.53505 862.141577,215 875.842294,215 Z" id="Path-Copy-4"></path>
            </g>
        </g>
    </g>
</svg>