<?xml version="1.0" encoding="UTF-8"?>
<svg width="632px" height="163px" viewBox="0 0 632 163" version="1.1" xmlns="http://www.w3.org/2000/svg" xmlns:xlink="http://www.w3.org/1999/xlink">
    <!-- Generator: Sketch 46.2 (44496) - http://www.bohemiancoding.com/sketch -->
    <title>Group</title>
    <desc>Created with Sketch.</desc>
    <defs></defs>
    <g id="Page-1" stroke="none" stroke-width="1" fill="none" fill-rule="evenodd">
        <g id="Desktop-HD-Copy" transform="translate(-403.000000, -403.000000)">
            <g id="Group" transform="translate(403.000000, 403.000000)">
                <g id="Group-3-Copy-2" opacity="0.141983696" style="mix-blend-mode: multiply;" transform="translate(0.000000, 24.000000)">
                    <polygon id="Path-Copy" fill="#EE4E7A" points="0 112 24.16 112 24.16 39.36 55.36 86.72 56 86.72 87.52 38.88 87.52 112 112 112 112 0 85.44 0 56 47.36 26.56 0 0 0"></polygon>
                    <path d="M171.714829,115 C146.003802,115 127,96.7741935 127,70.3225806 L127,70 C127,45.3225806 144.406844,25 169.319392,25 C197.904943,25 211,47.4193548 211,71.9354839 C211,73.8709677 210.840304,76.1290323 210.680608,78.3870968 L151.114068,78.3870968 C153.509506,89.516129 161.174905,95.3225806 172.034221,95.3225806 C180.178707,95.3225806 186.087452,92.7419355 192.794677,86.4516129 L206.688213,98.8709677 C198.703422,108.870968 187.205323,115 171.714829,115 Z M150.794677,63.0645161 L187.365019,63.0645161 C185.927757,52.0967742 179.539924,44.6774194 169.319392,44.6774194 C159.258555,44.6774194 152.711027,51.9354839 150.794677,63.0645161 Z" id="Combined-Shape-Copy" fill="#A066AA"></path>
                    <path d="M224,112 L248.342298,112 L248.342298,64.3571429 C248.342298,52.8846154 253.947433,46.989011 263.075795,46.989011 C272.204156,46.989011 277.328851,52.8846154 277.328851,64.3571429 L277.328851,112 L301.671149,112 L301.671149,64.3571429 C301.671149,52.8846154 307.276284,46.989011 316.404645,46.989011 C325.533007,46.989011 330.657702,52.8846154 330.657702,64.3571429 L330.657702,112 L355,112 L355,56.3901099 C355,35.8351648 344.110024,25 326.013447,25 C314.322738,25 305.354523,29.7802198 297.827628,38.543956 C293.343521,29.9395604 284.855746,25 273.645477,25 C261.314181,25 253.947433,31.532967 248.342298,38.7032967 L248.342298,26.5934066 L224,26.5934066 L224,112 Z" id="Path-Copy-2" fill="#4F72B7"></path>
                    <path d="M416.339655,115 C389.722414,115 370,95.1612903 370,70.3225806 L370,70 C370,45.1612903 389.882759,25 416.660345,25 C443.277586,25 463,44.8387097 463,69.6774194 L463,70 C463,94.8387097 443.117241,115 416.339655,115 Z M416.660345,93.8709677 C430.610345,93.8709677 438.948276,83.0645161 438.948276,70.3225806 L438.948276,70 C438.948276,57.2580645 429.808621,46.1290323 416.339655,46.1290323 C402.389655,46.1290323 394.051724,56.9354839 394.051724,69.6774194 L394.051724,70 C394.051724,82.7419355 403.191379,93.8709677 416.660345,93.8709677 Z" id="Combined-Shape-Copy-2" fill="#0B97AC"></path>
                    <path d="M476,112 L500.470588,112 L500.470588,80.463965 C500.470588,60.0770333 510.452012,50.3613861 526.712074,50.3613861 L528,50.3613861 L528,25.0369944 C513.510836,24.3999027 505.4613,32.0450021 500.470588,43.831197 L500.470588,26.6297234 L476,26.6297234 L476,112 Z" id="Path-Copy-3" fill="#00B39A"></path>
                    <path d="M565.387097,139 C580.064516,139 587.16129,132.430615 593.774194,114.965665 L627,27 L601.516129,27 L582.645161,85.4835479 L562.967742,27 L537,27 L570.870968,113.203147 C568.774194,117.529328 566.516129,118.811159 562.322581,118.811159 C559.096774,118.811159 555.064516,117.369099 551.83871,115.446352 L543.612903,133.071531 C549.903226,136.756795 556.516129,139 565.387097,139 Z" id="Path-Copy-4" fill="#6DB981"></path>
                </g>
                <g id="Group-3" transform="translate(5.000000, 0.000000)">
                    <polygon id="Path-Copy" fill="#EE4E7A" points="0 112 24.16 112 24.16 39.36 55.36 86.72 56 86.72 87.52 38.88 87.52 112 112 112 112 0 85.44 0 56 47.36 26.56 0 0 0"></polygon>
                    <path d="M171.714829,115 C146.003802,115 127,96.7741935 127,70.3225806 L127,70 C127,45.3225806 144.406844,25 169.319392,25 C197.904943,25 211,47.4193548 211,71.9354839 C211,73.8709677 210.840304,76.1290323 210.680608,78.3870968 L151.114068,78.3870968 C153.509506,89.516129 161.174905,95.3225806 172.034221,95.3225806 C180.178707,95.3225806 186.087452,92.7419355 192.794677,86.4516129 L206.688213,98.8709677 C198.703422,108.870968 187.205323,115 171.714829,115 Z M150.794677,63.0645161 L187.365019,63.0645161 C185.927757,52.0967742 179.539924,44.6774194 169.319392,44.6774194 C159.258555,44.6774194 152.711027,51.9354839 150.794677,63.0645161 Z" id="Combined-Shape-Copy" fill="#A066AA"></path>
                    <path d="M224,112 L248.342298,112 L248.342298,64.3571429 C248.342298,52.8846154 253.947433,46.989011 263.075795,46.989011 C272.204156,46.989011 277.328851,52.8846154 277.328851,64.3571429 L277.328851,112 L301.671149,112 L301.671149,64.3571429 C301.671149,52.8846154 307.276284,46.989011 316.404645,46.989011 C325.533007,46.989011 330.657702,52.8846154 330.657702,64.3571429 L330.657702,112 L355,112 L355,56.3901099 C355,35.8351648 344.110024,25 326.013447,25 C314.322738,25 305.354523,29.7802198 297.827628,38.543956 C293.343521,29.9395604 284.855746,25 273.645477,25 C261.314181,25 253.947433,31.532967 248.342298,38.7032967 L248.342298,26.5934066 L224,26.5934066 L224,112 Z" id="Path-Copy-2" fill="#4F72B7"></path>
                    <path d="M416.339655,115 C389.722414,115 370,95.1612903 370,70.3225806 L370,70 C370,45.1612903 389.882759,25 416.660345,25 C443.277586,25 463,44.8387097 463,69.6774194 L463,70 C463,94.8387097 443.117241,115 416.339655,115 Z M416.660345,93.8709677 C430.610345,93.8709677 438.948276,83.0645161 438.948276,70.3225806 L438.948276,70 C438.948276,57.2580645 429.808621,46.1290323 416.339655,46.1290323 C402.389655,46.1290323 394.051724,56.9354839 394.051724,69.6774194 L394.051724,70 C394.051724,82.7419355 403.191379,93.8709677 416.660345,93.8709677 Z" id="Combined-Shape-Copy-2" fill="#0B97AC"></path>
                    <path d="M476,112 L500.470588,112 L500.470588,80.463965 C500.470588,60.0770333 510.452012,50.3613861 526.712074,50.3613861 L528,50.3613861 L528,25.0369944 C513.510836,24.3999027 505.4613,32.0450021 500.470588,43.831197 L500.470588,26.6297234 L476,26.6297234 L476,112 Z" id="Path-Copy-3" fill="#00B39A"></path>
                    <path d="M565.387097,139 C580.064516,139 587.16129,132.430615 593.774194,114.965665 L627,27 L601.516129,27 L582.645161,85.4835479 L562.967742,27 L537,27 L570.870968,113.203147 C568.774194,117.529328 566.516129,118.811159 562.322581,118.811159 C559.096774,118.811159 555.064516,117.369099 551.83871,115.446352 L543.612903,133.071531 C549.903226,136.756795 556.516129,139 565.387097,139 Z" id="Path-Copy-4" fill="#6DB981"></path>
                </g>
            </g>
        </g>
    </g>
</svg>